<svg width="24" height="24" viewBox="0 0 24 24" fill="#FFFFFF" xmlns="http://www.w3.org/2000/svg">
<path d="M16 5L19 8L17 9L21 13L18 14L22 18H13M15 21V18M7.99999 13L5.99999 11M7.99999 12L9.99999 10M7.99999 21V8M5.82399 15.995C5.38646 15.9694 4.95986 15.8482 4.57419 15.64C4.18853 15.4318 3.85316 15.1416 3.59169 14.7899C3.33022 14.4381 3.149 14.0334 3.06077 13.6041C2.97253 13.1748 2.97944 12.7314 3.08099 12.305C2.71807 12.0033 2.4315 11.6203 2.24458 11.1869C2.05766 10.7536 1.97568 10.2823 2.0053 9.81128C2.03493 9.34029 2.17533 8.88294 2.41507 8.47645C2.65481 8.06997 2.98713 7.72581 3.38499 7.472C3.03636 6.85266 2.91894 6.12965 3.05365 5.43181C3.18836 4.73397 3.56645 4.10662 4.12055 3.66153C4.67466 3.21645 5.36878 2.98255 6.07926 3.00149C6.78973 3.02044 7.4704 3.29102 7.99999 3.765C8.5297 3.29177 9.21015 3.02183 9.92022 3.00325C10.6303 2.98467 11.3239 3.21865 11.8777 3.66353C12.4314 4.10842 12.8093 4.73535 12.9442 5.43275C13.079 6.13015 12.962 6.85277 12.614 7.472C13.0121 7.72559 13.3447 8.06962 13.5846 8.47607C13.8246 8.88253 13.9652 9.33991 13.9949 9.81098C14.0246 10.282 13.9427 10.7535 13.7557 11.1869C13.5687 11.6203 13.2821 12.0034 12.919 12.305C13.024 12.7458 13.0277 13.2046 12.93 13.6471C12.8322 14.0896 12.6356 14.5041 12.3547 14.8597C12.0738 15.2152 11.716 15.5025 11.3082 15.7C10.9004 15.8975 10.4531 16.0001 9.99999 16H5.99999L5.82399 15.995Z" stroke="#787878" stroke-width="2" stroke-linecap="round" stroke-linejoin="round"/>
</svg>
